<?xml version="1.0" encoding="utf-8"?>
<!-- Generator: Adobe Illustrator 23.0.3, SVG Export Plug-In . SVG Version: 6.00 Build 0)  -->
<svg version="1.1" id="레이어_1" xmlns="http://www.w3.org/2000/svg" xmlns:xlink="http://www.w3.org/1999/xlink" x="0px"
	 y="0px" viewBox="0 0 637.2 637.2" style="enable-background:new 0 0 637.2 637.2;" xml:space="preserve">
<style type="text/css">
	.st0{fill:#7FA865;}
</style>
<g>
	<path class="st0" d="M318.47,3.44c-64.98,0-125.36,19.65-175.55,53.33c-7.76,55.31-15.46,119.03-15.98,123.53
		c-3.36,29.65-13.11,85.41,7.02,110.4c17.25,21.4,49.34,0.51,66.29-17.27c43.64-45.82,61.08-126.58,69.92-190.57
		c0,0,33.09,23.31,33.09,23.33c3.8,4.14-2.05,42.5-2.63,47.77c-5.95,53.32-6.91,107.09-5.9,160.76l44.12-22.87c0,0.01,0,0.02,0,0.03
		l1.33-1.48c0,0-8.72-83.95-4.95-124.71c3.06-32.9,20.37-65.27,51.09-74.14c32.73-9.44,71.68,3.07,97.57,26.4
		c24.61,22.18,44.63,68.81,29.2,103.66c-13.1,29.53-49.61,51.68-75.32,65.04c-6.21,3.22-34.91,18.15-58.98,28.54
		c-0.32-3.21,1.42,61.26,1.15,76.79c1.84-18.68,20.16-46.45,30.04-59.41c12.41-16.25,38.88-30.92,57.45-35.41
		c15.08-3.64,40.46-0.52,53.85,8.5c27.89,18.8,34.76,61.71,36.23,93.79c0.7,15.24-4.03,78.13-10.76,137.23
		c54.02-56.62,87.19-133.31,87.19-217.74C633.95,144.68,492.7,3.44,318.47,3.44z"/>
	<path class="st0" d="M260.84,372.44c-15.61,2.59-67.73,26.72-87.14,47.19c-42.54,44.79,17.01,107.57,62.56,98.09
		c23.44-4.89,26.42-39.3,26.62-60.63C262.91,453.43,262.82,372.12,260.84,372.44z"/>
	<path class="st0" d="M502.97,354.47c-17.25-21.4-49.35-0.51-66.29,17.27c-43.64,45.82-61.08,126.58-69.91,190.57
		c0,0-33.09-23.32-33.09-23.33c-3.81-4.14,2.04-42.5,2.62-47.76c5.95-53.33,6.91-107.1,5.9-160.77l-6.16,3.01c0-0.01,0-0.02,0-0.03
		l-39.32,21.63c3.2,41.46,8.75,83.65,4.97,124.41c-3.05,32.9-20.37,65.27-51.09,74.14c-32.73,9.44-71.69-3.07-97.57-26.4
		c-24.61-22.18-44.63-68.81-29.2-103.66c13.1-29.53,49.61-51.68,75.32-65.04c6.21-3.23,34.91-18.15,58.99-28.54
		c0.32,3.21-1.42-61.26-1.15-76.79c-1.84,18.68-20.16,46.45-30.05,59.41c-12.41,16.25-38.87,30.92-57.44,35.41
		c-15.08,3.64-40.47,0.52-53.86-8.5c-27.89-18.8-34.76-61.71-36.23-93.79c-0.76-16.57,4.89-85.53,12.56-146.39
		C36.9,156.13,2.98,233.56,2.98,318.92c0,174.23,141.25,315.48,315.48,315.48c65.81,0,126.9-20.16,177.46-54.62
		c7.07-53.84,13.59-110.79,14.06-114.91C513.36,435.22,523.1,379.46,502.97,354.47z"/>
	<path class="st0" d="M463.23,225.53c42.54-44.79-17.01-107.57-62.55-98.09c-23.44,4.89-26.43,39.3-26.62,60.64
		c-0.03,3.66,0.08,85.9,2.06,85.58C391.73,271.05,443.82,245.99,463.23,225.53z"/>
</g>
</svg>
